Coordinates
version=1
nRows=14
nColumns=40
inDegrees=yes

Units are S.I. units (second, meters, Newtons, ...)
Angles are in degrees.

endheader
time	pelvis_tilt	pelvis_list	pelvis_rotation	pelvis_tx	pelvis_ty	pelvis_tz	hip_flexion_r	hip_adduction_r	hip_rotation_r	knee_angle_r	knee_angle_r_beta	ankle_angle_r	subtalar_angle_r	mtp_angle_r	hip_flexion_l	hip_adduction_l	hip_rotation_l	knee_angle_l	knee_angle_l_beta	ankle_angle_l	subtalar_angle_l	mtp_angle_l	lumbar_extension	lumbar_bending	lumbar_rotation	arm_flex_r	arm_add_r	arm_rot_r	elbow_flex_r	pro_sup_r	wrist_flex_r	wrist_dev_r	arm_flex_l	arm_add_l	arm_rot_l	elbow_flex_l	pro_sup_l	wrist_flex_l	wrist_dev_l
      1.00000000	      4.78843125	      1.96845088	     -3.91248116	     -0.16942296	      0.90202867	     -1.44165129	     16.16708407	     -4.71358860	     -3.66009128	    -63.89279569	     -1.11513965	     -5.24498004	    -16.40488013	      7.91415549	      2.64703433	     -6.07645216	      6.88762716	    -20.53085698	     -0.35833105	     10.19041690	     -0.05443314	     -3.16873862	     -7.67244654	     -0.82762748	      0.28384485	      9.16525243	     -9.21776194	     19.11598687	     19.19373090	     89.95437384	      0.00000000	      0.00000000	      2.96411494	      9.02676417	    -25.87182483	     14.00676320	     89.95437384	      0.00000000	      0.00000000
      1.01000000	      5.39606106	      1.46735866	     -3.41141503	     -0.15716412	      0.90383358	     -1.44256078	     16.38677741	     -4.04421707	     -4.28687987	    -62.31041673	     -1.08752193	     -3.62213029	    -15.82242173	     12.76671328	      0.51944318	     -5.57746045	      7.08329274	    -19.55008147	     -0.34121329	     10.19325684	     -1.09855124	     -3.33593842	     -8.33298637	     -0.17153368	     -0.39641008	      8.46897905	     -9.39847798	     20.38858232	     18.99287196	     89.95437384	      0.00000000	      0.00000000	      4.02034241	      8.89934852	    -23.63185082	     14.72854180	     89.95437384	      0.00000000	      0.00000000
      1.02000000	      5.01477088	      1.40857453	     -3.05282826	     -0.14586865	      0.90361971	     -1.44358331	     18.03463537	     -3.86873946	     -4.72449158	    -60.89402519	     -1.06280123	     -3.02607078	    -15.59428713	     12.57780709	     -0.15011688	     -5.56188973	      7.21002743	    -19.02055844	     -0.33197137	     10.43911394	     -1.24010222	     -3.33825631	     -7.88430911	      0.04991814	     -0.70801378	      7.58206817	     -9.43864142	     20.46267777	     18.67503445	     89.95437384	      0.00000000	      0.00000000	      5.11907859	      9.04760034	    -23.40751891	     15.62603995	     89.95437384	      0.00000000	      0.00000000
      1.03000000	      5.59352839	      0.92858891	     -2.46868404	     -0.13376529	      0.90487457	     -1.44449854	     18.11895851	     -3.18351253	     -5.37638786	    -58.73914912	     -1.02519155	     -2.02377780	    -15.53723805	     12.75150062	     -2.31250575	     -5.12974175	      6.78986293	    -17.85211601	     -0.31157820	     10.71269137	     -1.99904590	     -3.45662664	     -8.53631713	      0.69516272	     -1.34041894	      6.83800286	     -9.48905948	     20.63194229	     18.39207247	     89.95437384	      0.00000000	      0.00000000	      6.10411607	      9.18702989	    -22.23916623	     16.87908318	     89.95437384	      0.00000000	      0.00000000
      1.04000000	      5.39323320	      0.88093123	     -2.10511083	     -0.12233401	      0.90448259	     -1.44549172	     19.32685437	     -2.91277744	     -5.67476735	    -56.73597577	     -0.99022958	     -1.29054990	    -15.42824367	     12.67610937	     -3.28073268	     -5.14910484	      6.57519235	    -17.19525383	     -0.30011380	     10.97020764	     -2.37275481	     -3.50257998	     -8.30978293	      0.87790086	     -1.65099673	      5.97926742	     -9.53725634	     20.74264326	     18.10267580	     89.95437384	      0.00000000	      0.00000000	      7.13659023	      9.34056254	    -21.55081521	     18.05622320	     89.95437384	      0.00000000	      0.00000000
      1.05000000	      5.95743184	      0.51687336	     -1.52381257	     -0.11018211	      0.90531534	     -1.44644241	     19.25200559	     -2.46667071	     -6.53487800	    -54.05823832	     -0.94349425	     -0.75445955	    -15.23126974	     12.86502033	     -5.29791345	     -4.76022908	      6.50561933	    -16.24656076	     -0.28355598	     11.10972801	     -2.87221408	     -3.60544424	     -8.91719763	      1.39255751	     -2.19152585	      5.20972564	     -9.57873242	     20.91074246	     17.77323715	     89.95437384	      0.00000000	      0.00000000	      8.08782095	      9.40881051	    -20.28311044	     19.32977403	     89.95437384	      0.00000000	      0.00000000
      1.06000000	      6.12451401	      0.28826078	     -1.01695896	     -0.09842967	      0.90514407	     -1.44725871	     19.68500735	     -2.17381158	     -7.35207669	    -51.34005242	     -0.89605295	     -0.26533726	    -14.91243621	     12.92383133	     -6.74129907	     -4.48975186	      6.43068065	    -15.47576660	     -0.27010308	     11.23171760	     -3.49626840	     -3.75919506	     -9.10460056	      1.74673404	     -2.59200828	      4.41766208	     -9.59325178	     21.03948361	     17.38296733	     89.95437384	      0.00000000	      0.00000000	      9.07846786	      9.53464294	    -19.49098833	     20.63176213	     89.95437384	      0.00000000	      0.00000000
      1.07000000	      6.35785401	      0.09430648	     -0.52172720	     -0.08660946	      0.90488032	     -1.44796802	     19.90620821	     -1.86149226	     -8.01561288	    -48.35205549	     -0.84390257	      0.14646171	    -14.33256544	     12.87564606	     -8.22298986	     -4.20920623	      6.56848800	    -14.77079822	     -0.25779906	     11.24412236	     -4.18644169	     -3.94286213	     -9.36916221	      2.05240528	     -3.00781426	      3.63892911	     -9.58401850	     21.15717807	     17.06871298	     89.95437384	      0.00000000	      0.00000000	     10.02864862	      9.72261077	    -18.81356598	     22.00309436	     89.95437384	      0.00000000	      0.00000000
      1.08000000	      6.10085363	      0.01261485	     -0.09140161	     -0.07521579	      0.90356254	     -1.44850138	     20.78435244	     -1.63693717	     -8.51303567	    -45.48099156	     -0.79379305	      0.71448154	    -13.54169763	     12.67125039	     -9.04706510	     -4.06611829	      6.47844610	    -14.25304860	     -0.24876263	     11.53299756	     -4.69777133	     -4.05925027	     -9.11108720	      2.21702904	     -3.29796933	      2.84446479	     -9.51139503	     21.14589395	     16.65012055	     89.95437384	      0.00000000	      0.00000000	     10.91973342	      9.96441188	    -18.47605435	     23.47127761	     89.95437384	      0.00000000	      0.00000000
      1.09000000	      6.58971027	     -0.25185862	      0.57312164	     -0.06326702	      0.90332557	     -1.44929201	     20.45059870	     -1.43043975	     -9.67748840	    -42.04011759	     -0.73373847	      1.12451967	    -12.15964888	     12.21041177	    -10.73905228	     -3.60000430	      6.97614291	    -13.66751426	     -0.23854312	     11.44426941	     -5.77419016	     -4.30251101	     -9.65647540	      2.61258937	     -3.78296274	      2.06504502	     -9.51316211	     21.43051268	     16.39195735	     89.95437384	      0.00000000	      0.00000000	     11.88188473	     10.13118456	    -17.97449026	     24.86147782	     89.95437384	      0.00000000	      0.00000000
      1.10000000	      6.23615873	     -0.28833924	      0.85123619	     -0.05182686	      0.90154533	     -1.44956780	     21.30841734	     -1.25748481	    -10.14851856	    -38.93500858	     -0.67954409	      1.09634704	    -10.90720536	     11.94964289	    -11.37342814	     -3.52525994	      7.01791552	    -13.32973577	     -0.23264778	     11.73392666	     -6.16588545	     -4.40768138	     -9.31151400	      2.70246710	     -3.92017977	      1.28854993	     -9.42788731	     21.62491141	     15.94770174	     89.95437384	      0.00000000	      0.00000000	     12.71345239	     10.34740854	    -17.65831731	     26.36251096	     89.95437384	      0.00000000	      0.00000000
      1.11000000	      6.21303015	     -0.44631148	      1.39523208	     -0.04012466	      0.90020254	     -1.45021881	     21.55698612	     -1.13308529	    -11.13794964	    -35.58182755	     -0.62102004	      0.83759558	     -9.45317644	     11.69938450	    -12.34096128	     -3.22665424	      7.18382842	    -13.03052545	     -0.22742557	     11.99480012	     -6.63633031	     -4.56293848	     -9.28468998	      2.95992827	     -4.30606637	      0.56593343	     -9.36219292	     21.88950522	     15.51241142	     89.95437384	      0.00000000	      0.00000000	     13.56758359	     10.49594333	    -17.28007062	     27.75637571	     89.95437384	      0.00000000	      0.00000000
      1.12000000	      6.51212656	     -0.71160092	      1.98383219	     -0.02801093	      0.89927817	     -1.45069935	     21.28814689	     -1.02392478	    -12.79540279	    -32.18057845	     -0.56165705	      0.86104048	     -7.35666237	     11.10165542	    -13.66252528	     -2.71157491	      7.57872598	    -12.76197331	     -0.22273845	     12.09990581	     -7.46759362	     -4.86438992	     -9.59196371	      3.32945777	     -4.69479646	     -0.17743057	     -9.36141593	     22.78984658	     15.14666707	     89.95437384	      0.00000000	      0.00000000	     14.41112710	     10.59722403	    -16.78817663	     29.06529563	     89.95437384	      0.00000000	      0.00000000
      1.13000000	      6.23112556	     -0.80695596	      2.46479273	     -0.01643345	      0.89730150	     -1.45116298	     21.76022616	     -0.99120819	    -13.96906233	    -29.00714506	     -0.50627019	      0.74485346	     -5.75304591	     10.53587298	    -14.16720211	     -2.44359482	      7.66107395	    -12.78179880	     -0.22308447	     12.34698600	     -8.04070780	     -5.12517613	     -9.28473203	      3.49342635	     -5.02151274	     -0.87946989	     -9.29525434	     23.46293373	     14.71681105	     89.95437384	      0.00000000	      0.00000000	     15.17533613	     10.76407555	    -16.67918401	     30.40600246	     89.95437384	      0.00000000	      0.00000000
